<svg width="246" height="40" viewBox="0 0 246 40" fill="none" xmlns="http://www.w3.org/2000/svg">
<path fill-rule="evenodd" clip-rule="evenodd" d="M242.694 1.76428C222.329 8.73573 207.227 17.5953 194.985 29.7953C188.235 36.4761 186.061 37.9286 182.4 37.9286L178.052 37.7833L183.087 32.1192C193.841 20.2095 215.121 8.00953 234.8 2.49047C243.038 0.166668 248.873 -0.269057 242.694 1.76428ZM132.86 15.4167C134.119 17.3047 132.86 17.5953 122.678 17.5953H111.122V25.5833V33.5714H122.678C131.373 33.5714 134.119 34.0072 133.776 35.3141C133.318 36.7667 129.542 37.2025 119.589 37.2025H105.974L105.631 27.3261C105.402 21.2262 105.86 16.5786 106.66 15.2714C108.605 12.2214 130.915 12.3667 132.86 15.4167ZM25.772 14.1095C30.2341 16.2881 26.8018 17.5953 16.7336 17.5953C6.6655 17.5953 5.86462 17.7405 5.86462 20.5C5.86462 23.1143 6.6655 23.4047 15.9328 23.4047C21.4245 23.4047 26.5729 23.9857 27.3738 24.7119C28.2891 25.4381 28.7467 28.0525 28.5179 31.538L28.1747 37.2025H14.5598C4.60614 37.2025 0.830573 36.7667 0.487341 35.3141C0.0297 34.0072 2.77555 33.5714 11.4707 33.5714C22.2253 33.5714 23.0262 33.4261 23.0262 30.6667C23.0262 28.0525 22.2253 27.762 12.9581 27.762C6.6655 27.762 2.43232 27.1808 1.51704 26.0191C-0.19912 23.8405 -0.19912 17.1595 1.51704 14.9809C3.00437 13.0929 22.4542 12.5119 25.772 14.1095ZM64.443 15.7071C65.587 17.0143 66.5021 19.4833 66.5021 21.0809C66.5021 27.4714 64.7859 28.488 54.0313 28.9239L43.7345 29.5047L43.3912 34.0073C43.1623 37.4928 42.4761 38.8 40.531 39.0906C38.014 39.5261 37.8996 39.2359 37.8996 26.4547V13.2381H50.1416C59.8666 13.2381 62.7268 13.6738 64.443 15.7071ZM98.537 38.0739C98.537 37.3475 95.4479 31.3928 91.6726 25.0024C87.8968 18.4667 84.4648 13.2381 83.8926 13.2381C83.4348 13.2381 82.5197 14.4 81.8331 15.8524C80.8035 17.8857 81.0324 19.3381 83.206 22.6786C84.6933 25.1476 85.9521 27.4714 85.9521 28.0525C85.9521 28.6333 82.7486 29.2141 78.8584 29.5047C74.5109 29.7953 71.6507 30.6667 71.3074 31.6833C70.9641 33.1359 73.2525 33.5714 80.0024 33.5714C87.5539 33.5714 89.3841 34.0072 91.1003 36.4761C93.1599 39.3808 98.537 40.5428 98.537 38.0739ZM155.17 26.3095C159.976 26.3095 161.463 25.8738 161.463 24.1309C161.463 22.3881 159.632 21.9524 151.738 21.9524H141.899L142.242 30.2308L142.585 38.6547L156.086 39.0906C168.9 39.5261 169.471 39.3808 169.471 36.4761C169.471 33.7167 168.785 33.5714 159.175 33.5714C148.992 33.5714 148.878 33.5714 148.878 29.9406C148.878 26.4547 149.221 26.3095 155.17 26.3095ZM170.616 15.4167C170.616 17.1595 168.327 17.5953 156.887 17.5953C145.445 17.5953 143.157 17.1595 143.157 15.4167C143.157 13.5286 145.445 13.2381 156.887 13.2381C168.327 13.2381 170.616 13.5286 170.616 15.4167ZM191.324 21.8071C194.07 19.9191 194.07 19.3381 190.981 15.9976C189.265 14.2547 186.519 13.3833 183.201 13.2381H178.052L183.658 18.3214C188.006 22.2429 189.608 22.9691 191.324 21.8071ZM214.435 37.9286L208.028 32.1192C204.596 28.9239 201.507 26.3095 201.278 26.3095C201.049 26.3095 200.019 27.4714 198.875 28.7786C197.159 31.1025 197.273 31.3928 200.935 34.588C203.451 36.7667 206.426 37.9286 209.63 37.9286H214.435ZM43.4352 20.632C43.4352 23.2463 44.2359 23.5368 52.0158 23.5368C59.7957 23.5368 60.5968 23.2463 60.5968 20.632C60.5968 18.0177 59.7957 17.7273 52.0158 17.7273C44.2359 17.7273 43.4352 18.0177 43.4352 20.632Z" fill="white"/>
</svg>
